<svg width="28" height="28" fill="none" xmlns="http://www.w3.org/2000/svg"><path d="M25.666 6.402H21.2a1.938 1.938 0 01-1.936-1.936V0H3.7c-.755 0-1.367.613-1.367 1.367v11.65h23.334V6.402zm-21-.193a.57.57 0 01.57-.57h6.998a.57.57 0 01.57.57v.029a.57.57 0 01-.57.569H5.236a.57.57 0 01-.57-.57V6.21zm13.417 4.475a.57.57 0 01-.57.569H5.237a.57.57 0 01-.57-.57v-.028a.57.57 0 01.57-.569h12.278a.57.57 0 01.57.57v.028h-.001zm0-2.223a.57.57 0 01-.57.569H5.237a.57.57 0 01-.57-.57v-.028a.57.57 0 01.57-.569h12.278a.57.57 0 01.57.57v.028h-.001zm1.75-3.995V0l5.834 5.834H21.2a1.367 1.367 0 01-1.367-1.368zm-17.5 20.19h23.334v1.977c0 .755-.613 1.367-1.368 1.367H3.7a1.368 1.368 0 01-1.367-1.367v-1.978zm24.244-11.07H1.423c-.786 0-1.423.637-1.423 1.423v7.655c0 .785.637 1.423 1.423 1.423h25.154c.786 0 1.423-.637 1.423-1.423v-7.655c0-.786-.637-1.423-1.423-1.423zm-15.75 6.846c.167.285.454.427.861.427.345 0 .608-.081.79-.244.183-.162.28-.42.291-.773h1.491c-.02.433-.136.816-.35 1.148a2.114 2.114 0 01-.9.77 3.065 3.065 0 01-1.322.274c-.818 0-1.461-.266-1.931-.799-.705-.799-.705-1.284-.705-2.256v-.307c0-.61.106-1.143.318-1.6.212-.457.518-.81.917-1.06.398-.25.86-.374 1.384-.374.755 0 1.362.198 1.82.596.458.398.719.945.782 1.643h-1.495c-.012-.38-.107-.651-.286-.816-.18-.165-.453-.248-.82-.248-.368 0-.647.14-.82.419-.175.28-.266.725-.274 1.337v.44c0 .664.083 1.138.25 1.423zm8.12 1.516h-1.44a1.623 1.623 0 01-.136-.414c-.265.333-.636.5-1.11.5-.437 0-.807-.132-1.111-.396-.457-.395-.458-.594-.458-.993 0-.501.185-.88.556-1.136.37-.257.908-.385 1.615-.385h.444v-.244c0-.427-.184-.64-.551-.64-.342 0-.513.169-.513.506h-1.44c0-.447.19-.809.57-1.088.38-.279.865-.418 1.455-.418.59 0 1.055.144 1.397.431.342.288.517.682.526 1.184V20.9c.005.424.07.75.196.974v.073zm-2.059-2.055h.419v.74a.73.73 0 01-.254.26c-.178.116-.267.116-.447.116a.477.477 0 01-.337-.122.41.41 0 01-.132-.319c0-.45.25-.674.752-.674h-.001z" fill="#fff"/></svg>