<svg width="46" height="55" fill="none" xmlns="http://www.w3.org/2000/svg"><path d="M1.102 30.137c-.385.5-.603 1.094-.845 1.695-.534-.963-.21-4.335.737-6.683.863-2.143 2.119-4.044 3.575-5.834-1.502.615-2.723 1.636-3.983 2.697-.081-.28.044-.455.117-.632.61-1.46 1.56-2.683 2.65-3.808a21.565 21.565 0 013.153-2.677 1.087 1.087 0 00.484-.816 20.13 20.13 0 011.229-4.973c.454-1.117.626-2.284.864-3.444a18.397 18.397 0 011.071-3.611 6.93 6.93 0 01.578-1.11c.71-1.063 1.66-1.236 2.683-.466a47.404 47.404 0 015.318 4.74 1.155 1.155 0 001.143.395 22.42 22.42 0 0110.459.797c.425.135.691.049 1.005-.267a26.229 26.229 0 016.448-4.717c1.658-.872 2.59-.441 3.059 1.371a19.08 19.08 0 01.533 4.203 60.3 60.3 0 01-.237 7.644 1.13 1.13 0 00.287.903 16.87 16.87 0 012.824 4.936c.042.112.063.232.111.42-.578-.256-.963-.75-1.61-.887 2.56 4.556 3.388 9.362 2.556 14.467-.183-.668-.352-1.348-.549-2.005a6.005 6.005 0 00-.9-1.926c.06 2.18.193 4.348-.053 6.514-.247 2.167-.744 4.237-1.72 6.2-.193-1.649-.314-3.294-.948-4.911-.229.266-.179.526-.225.753-1.275 6.377-5.042 10.785-10.814 13.55a16.962 16.962 0 01-8.488 1.734c-2.18-.135-4.257-.614-5.944-2.145-.368-.335-.474 0-.578.254-.285.67-.277.666-.857.193-1.284-1.052-2.6-2.067-3.659-3.355-1.06-1.289-1.903-2.633-2.344-4.238a1.335 1.335 0 00-.098-.242c-.012-.025-.052-.035-.127-.081-.495 1.055-.617 2.159-.688 3.303a9.934 9.934 0 01-1.47-4.008 14.525 14.525 0 010-4.285c-1.02 1.169-1.415 2.627-1.925 4.044-1.156-2.417-1.05-4.857-.18-7.33-1.007 1.01-1.456 2.284-1.852 3.611a7.007 7.007 0 01-.653-2.483c-.193-2.04.21-3.998.815-5.93.506-1.49 1.186-2.91 1.808-4.364-1.146.742-2.119 1.61-2.76 2.804zm17.72 14.619a11.207 11.207 0 003.346 1.348l-2.028-1.412c-.192-.175-.385-.352-.577-.522-3.425-2.889-5.736-6.49-6.859-10.841-.277-1.071-.424-2.165-.622-3.398-.42 1.1-.428 2.128-.6 3.265-1.769-3.386-1.42-6.772-.69-10.244-2.525 2.573-2.89 11.145-.655 14.192 0-.847-.07-1.672.056-2.639a16.234 16.234 0 002.46 4.758 18.892 18.892 0 006.172 5.493h-.004zm20.03-13.057c.542-.063.995-.304 1.168-.826a1.002 1.002 0 01.624-.664c1.4-.626 1.998-1.674 1.926-3.296a.806.806 0 01.131-.385c.5-1.094.137-1.96-1.005-2.369a5.666 5.666 0 00-3.502-.096c-1.286.358-1.745 1.414-1.144 2.611.213.425.54.782.944 1.03.335.207.69.386 1.156.634-4.318 3.275-8.64 2.653-13.056.386-.048.256-.038.519.03.77.285 1.227 1.541 2.119 3.101 2.198 2.2.013 4.4.034 6.599.032 1.01.008 2.024.077 3.035-.025h-.008zM12.102 3.688c-1.138 2.696-1.437 5.452-.628 8.27.403 1.41 1.374 2.043 2.97 2.07-1.019-1.213-1.96-2.426-2.504-4.025 1.006.464 1.905.823 2.978.925-1.115-1.383-2.076-2.774-2.544-4.515.371.123.618.424 1.015.385-.557-.997-.87-2.062-1.287-3.11zm13.405 17.295a8.3 8.3 0 00.834-.088c.445-.085.88-.216 1.321-.314.299-.066.256-.21.12-.397-.235-.326-.447-.67-.71-.963-.746-.865-1.53-1.034-2.576-.578a6.347 6.347 0 00-1.527.998c-.241.202-.24.323 0 .51.73.553 1.623.847 2.538.834v-.002zM39.073 4.106a30.202 30.202 0 01-1.202 3.63c.54-.37.938-.728 1.483-.984-.395 1.242-.91 2.373-1.385 3.529.647-.438 1.233-.942 1.953-1.218a.476.476 0 00.347-.547 13.528 13.528 0 00-.164-2.033c-.15-.834-.308-1.676-1.032-2.377zm-1.456 15.916c.03-.726-.293-1.082-.796-1.3-.608-.264-1.28-.035-1.9.622-.203.216-.332.349.103.455.626.159 1.221.42 1.763.77.554.347.683.289.812-.372a.693.693 0 00.018-.175z" fill="#fff"/><path d="M12.103 3.688c.42 1.048.73 2.119 1.283 3.114-.397.035-.643-.265-1.015-.385.468 1.733 1.429 3.132 2.544 4.515-1.073-.106-1.972-.465-2.974-.925.542 1.599 1.483 2.812 2.504 4.025-1.59-.027-2.561-.66-2.964-2.07-.815-2.822-.516-5.582.622-8.274zm13.405 17.297a4.105 4.105 0 01-2.533-.838c-.244-.192-.246-.308 0-.51a6.4 6.4 0 011.527-.998c1.046-.458 1.83-.289 2.577.578.262.3.474.645.71.963.136.193.178.331-.12.397-.441.098-.877.229-1.321.314a8.303 8.303 0 01-.84.094zM39.073 4.106c.724.701.882 1.54 1.032 2.377.106.672.16 1.352.164 2.033a.475.475 0 01-.347.547c-.72.276-1.306.77-1.953 1.218.476-1.156.99-2.286 1.385-3.529-.545.256-.944.615-1.483.984a30.237 30.237 0 001.202-3.63zm-1.456 15.916a.692.692 0 01-.017.174c-.13.66-.258.718-.813.371a5.932 5.932 0 00-1.762-.77c-.436-.106-.307-.239-.105-.455.62-.656 1.293-.886 1.901-.622.503.218.827.574.796 1.302zM20.144 44.696c-.192-.175-.385-.353-.578-.522-3.424-2.89-5.735-6.49-6.858-10.841-.277-1.071-.424-2.165-.622-3.398-.42 1.1-.428 2.128-.601 3.265-1.768-3.386-1.42-6.772-.69-10.245-2.524 2.573-2.888 11.146-.654 14.193 0-.848-.07-1.672.056-2.639a16.25 16.25 0 002.455 4.754 18.893 18.893 0 006.173 5.492c.424-.348.882.024 1.32-.06z" fill="#09090E"/><path d="M20.144 44.696c-.437.083-.896-.29-1.32.06a11.205 11.205 0 003.348 1.348l-2.028-1.408zm21.558-20.539a5.666 5.666 0 00-3.502-.096c-1.287.358-1.745 1.414-1.144 2.612.213.424.54.781.944 1.03.335.206.69.385 1.155.634-4.318 3.274-8.64 2.652-13.056.385-.047.256-.037.519.031.77.285 1.227 1.54 2.119 3.1 2.198.24-.041.48-.069.721-.083h8.14c.257.012.515.038.77.079.543-.064.995-.304 1.169-.826a1 1 0 01.624-.665c1.4-.626 1.997-1.674 1.926-3.295a.807.807 0 01.13-.385c.496-1.083.134-1.95-1.008-2.358z" fill="#09090E"/><path d="M29.945 31.617a6.503 6.503 0 00-.72.082c2.28.014 8.615.102 9.63 0a7.035 7.035 0 00-.77-.079c-2.714-.007-5.427-.009-8.14-.003z" fill="#09090E"/></svg>