<svg width="39" height="39" fill="none" xmlns="http://www.w3.org/2000/svg"><path fill-rule="evenodd" clip-rule="evenodd" d="M15.549.381C10.422 1.477 6.057 4.456 3.197 8.81c-5.893 8.97-3.41 21.017 5.56 26.974 7.803 5.182 18.137 4 24.612-2.814 2.603-2.74 4.45-6.304 5.053-9.751.133-.759.317-1.466.41-1.573.203-.23.233-4.714.03-4.511-.076.077-.292-.617-.48-1.542-1.055-5.202-4.344-9.917-8.872-12.719C25.417.342 20.142-.6 15.549.381zm1.139 1.528c-2.213.914-4.365 3.198-5.803 6.159-.457.94-.787 1.752-.734 1.805.053.054 1.053-.046 2.222-.22a59.792 59.792 0 014.268-.45l2.143-.131V1.409l-.455.004c-.25.003-.989.226-1.642.496zm3.309 3.305v3.858l2.143.132c1.178.072 3.099.274 4.267.449 1.17.174 2.165.278 2.213.23.163-.165-.93-2.407-1.853-3.803-1.62-2.45-4.02-4.276-6.055-4.608l-.715-.117v3.859zm-8.75-1.915C9.23 4.343 7.462 5.675 6.144 7.143c-1.065 1.188-2.842 3.771-2.695 3.92.103.103 4.798-.671 5.062-.835.09-.056.164-.217.164-.359 0-.141.396-1.073.88-2.072.907-1.869 1.865-3.28 3.127-4.61.399-.419.62-.762.49-.762s-.995.393-1.925.874zm14.842-.134c1.295 1.385 2.234 2.773 3.137 4.632.484.999.88 1.931.88 2.072 0 .142.074.303.164.36.25.155 4.956.94 5.054.841.268-.269-2.202-3.581-3.642-4.884C29.927 4.6 27.33 2.969 25.86 2.53c-.468-.14-.451-.093.229.635zM12.415 10.99c-1.445.22-2.693.464-2.771.543-.395.397-1.16 4.585-1.168 6.392l-.004.966h10.312v-8.335l-1.87.018c-1.03.01-3.053.197-4.499.416zm7.582 3.703v4.198h10.372l-.127-1.794c-.127-1.808-.549-4.173-.917-5.146-.184-.487-.362-.552-2.388-.875a50.922 50.922 0 00-4.565-.464l-2.375-.116v4.197zM4.98 12.245l-2.38.424-.506 1.612c-.279.887-.563 2.287-.632 3.112l-.126 1.499h5.686l.139-1.576c.132-1.491.499-3.75.809-4.98.17-.674.268-.671-2.99-.09zm25.8-.143c.22.74.718 3.853.85 5.316l.134 1.474h5.679l-.126-1.5c-.07-.824-.354-2.223-.632-3.108l-.506-1.61-2.177-.368a213.05 213.05 0 01-2.757-.479c-.498-.095-.563-.056-.465.275zm-30.724 7.4c0 1.286.033 1.812.073 1.169.04-.643.04-1.695 0-2.338s-.073-.117-.073 1.169zm1.406 2.109c.069.824.353 2.223.631 3.108l.506 1.609 2.658.458c1.462.251 2.683.43 2.714.398.03-.032-.109-.928-.309-1.99-.2-1.062-.425-2.64-.502-3.507l-.138-1.575H1.337l.126 1.499zm7.076.294c.127 1.808.548 4.173.916 5.146.185.487.362.553 2.388.875 1.204.192 3.258.401 4.565.465l2.376.116v-8.395H8.412l.127 1.793zm11.458 2.402v4.196l2.375-.11c1.307-.06 3.361-.267 4.565-.462 2.024-.327 2.204-.393 2.388-.88.368-.973.79-3.338.917-5.146l.127-1.793H19.997v4.195zm11.625-2.62c-.075.867-.306 2.44-.515 3.498-.208 1.057-.348 1.953-.311 1.99.037.038 1.264-.138 2.726-.39l2.66-.457.505-1.61c.278-.884.562-2.283.631-3.107l.126-1.5h-5.686l-.136 1.576zM3.488 28.135c.332.868 1.759 2.777 3.056 4.087 1.888 1.908 4.615 3.726 6.376 4.251.469.14.452.093-.228-.634-1.295-1.386-2.235-2.773-3.137-4.633-.484-.998-.88-1.93-.88-2.072 0-.377-.141-.427-2.234-.78a121.624 121.624 0 01-2.498-.444c-.491-.1-.565-.063-.455.225zm29.284.118c-1.148.205-2.177.402-2.287.44-.11.037-.413.591-.672 1.233-.758 1.874-2.078 4.043-3.3 5.423-1.31 1.478-1.12 1.506 1.333.193 2.706-1.448 4.788-3.334 6.537-5.922.955-1.413 1.115-1.79.749-1.761-.151.012-1.213.189-2.36.394zm-22.682.873c0 .367 1.129 2.595 1.923 3.797 1.62 2.45 4.02 4.276 6.056 4.608l.715.117V29.87l-1.163-.006c-1.097-.006-4.787-.401-6.672-.715-.472-.079-.86-.089-.86-.021zm16.073.248c-.89.143-2.64.327-3.892.408l-2.274.148v7.718l.715-.117c2.728-.446 5.816-3.399 7.454-7.128.289-.657.525-1.23.525-1.271 0-.117-.752-.045-2.527.24z" fill="#7E7E7E"/></svg>