<svg width="32" height="32" fill="none" xmlns="http://www.w3.org/2000/svg"><path d="M16 32c8.837 0 16-7.163 16-16S24.837 0 16 0 0 7.163 0 16s7.163 16 16 16z" fill="url(#paint0_linear_229_136)"/><mask id="a" style="mask-type:luminance" maskUnits="userSpaceOnUse" x="0" y="0" width="32" height="32"><path d="M16 32c8.837 0 16-7.163 16-16S24.837 0 16 0 0 7.163 0 16s7.163 16 16 16z" fill="#fff"/></mask><g mask="url(#a)" stroke="#fff"><path d="M15.662-3.82V7.33M14.01-3.82V7.33m3.82-11.15V7.33M8.67-1.648l3.616 6.742V-2.58m10.839.726L19.51 4.888v-7.675m-3.275 40.052v-11.15m1.65 11.15v-11.15m-3.818 11.15v-11.15m9.263 9.118l-3.614-6.743v7.676m-11.046-.83l3.616-6.743v7.676m-16.88-19.26h11.15m-11.148 1.65H6.555m-11.148-3.818H6.555m-9.235 9.213l6.742-3.615h-7.675m1.656-10.632l6.742 3.614H-2.89m39.38 3.015H25.342m11.148-1.651H25.342m11.148 3.819H25.342m8.858-9.21l-6.742 3.614h7.676m-.521 10.942l-6.742-3.614h7.675M1.625 31.45l7.884-7.883m-6.716 9.05l7.884-7.882M.092 29.918l7.883-7.883m.4 13.056l2.213-7.323-5.427 5.427m-7.495-8.712l7.323-2.211-5.427 5.427m30.71-25.704l-7.883 7.883M29.104.827L21.22 8.71m10.585-5.183L23.92 11.41m-.16-12.816l-2.21 7.324L26.977.49m7.186 8.299L26.839 11l5.428-5.427m-1.591 25.472l-7.883-7.883m9.05 6.716l-7.882-7.883m5.182 10.583l-7.883-7.883m13.108-.211l-7.323-2.212 5.427 5.427m-8.608 7.289l-2.212-7.323 5.427 5.427M1.219 2.4l7.884 7.883M.052 3.568l7.883 7.883M2.753.867l7.884 7.883m-12.455.556l7.324 2.21L.078 6.09m8.195-7.185l2.212 7.323L5.058.8" stroke-width=".79"/><path d="M15.95 26.977c6.033 0 10.924-4.891 10.924-10.925 0-6.034-4.891-10.925-10.925-10.925-6.034 0-10.925 4.891-10.925 10.925 0 6.034 4.891 10.925 10.925 10.925z" fill="#F8BA3A" stroke-width=".677"/></g><mask id="b" style="mask-type:luminance" maskUnits="userSpaceOnUse" x="5" y="6" width="22" height="22"><path d="M16.052 27.85c6.034 0 10.925-4.891 10.925-10.925C26.977 10.891 22.086 6 16.052 6 10.018 6 5.127 10.891 5.127 16.925c0 6.034 4.891 10.925 10.925 10.925z" fill="#fff"/></mask><g mask="url(#b)"><path fill-rule="evenodd" clip-rule="evenodd" d="M16.568 5.518L15.123 17.13h1.445L16 27.84l10.533-1.884 1.91-14.706-4.641-4.081-7.234-1.652z" fill="#fff"/><path d="M5.837 14.598c.249 2.025 1.566 4.132 3.59 3.883 6.872-.844 5.906-5.259 5.814-6.689.497 4.05 3.573 5.537 8.726 4.904 1.534-.189 2.162-3.186 1.992-4.569-.212-1.729-4.789-1.98-10.494-1.28s-9.938 1.221-9.628 3.751z" fill="#01C1AE" stroke="#01C1AE" stroke-width="1.241" stroke-linecap="round" stroke-linejoin="round"/><path d="M16.116 23c2.394-.195 4.19-2.128 4.011-4.316l-8.668.707c.178 2.189 2.263 3.804 4.657 3.609z" fill="#fff" stroke="#FE9D51" stroke-width=".564" stroke-linejoin="round"/><path d="M17.239 20.645h2.374" stroke="#FE9A54" stroke-width=".451" stroke-linecap="round" stroke-linejoin="round"/><path d="M18.53 15.742c-1.86-.702-2.6-2.564-2.736-3.407 0-1.135 1.29-1.29 4.439-1.29s5.058.258 5.212 1.084c.155 1.445-.36 3.613-1.083 3.974-.723.36-3.51.516-5.833-.361h0zm-5.466.968c1.49-.983 2.265-2.878 1.8-4.478-.264-.911-1.716-.687-4.438-.258C8 12.357 6.142 13.42 6.35 14.348c.103 1.523 1.277 3.13 1.96 3.407.685.277 2.89.183 4.754-1.045z" fill="#000" stroke="#000" stroke-width=".113"/></g><defs><linearGradient id="paint0_linear_229_136" x1="0" y1="0" x2="0" y2="32" gradientUnits="userSpaceOnUse"><stop stop-color="#F5B745"/><stop offset="1" stop-color="#FC8B47"/></linearGradient></defs></svg>